<mxfile host="drawio-plugin" modified="2024-03-31T13:59:13.000Z" agent="5.0 (X11; Linux x86_64) AppleWebKit/537.36 (KHTML, like Gecko) Chrome/111.0.0.0 Safari/537.36" etag="muhs2jeHDBeSYSr40D_y" version="20.5.3" type="embed"><diagram name="Page-1" id="ad52d381-51e7-2e0d-a935-2d0ddd2fd229"><mxGraphModel dx="2199" dy="1633" grid="1" gridSize="10" guides="1" tooltips="1" connect="1" arrows="1" fold="1" page="1" pageScale="1" pageWidth="1100" pageHeight="850" background="none" math="0" shadow="0"><root><mxCell id="0"/><mxCell id="1" parent="0"/><mxCell id="2c924340bb9dbf6c-4" value="INTELLI GYM" style="ellipse;whiteSpace=wrap;html=1;rounded=1;shadow=1;comic=0;labelBackgroundColor=none;strokeWidth=2;fontFamily=Verdana;fontSize=12;align=center;fillColor=#d5e8d4;strokeColor=#82b366;fontColor=#4A4A4A;" parent="1" vertex="1"><mxGeometry x="490" y="260" width="120" height="120" as="geometry"/></mxCell><mxCell id="2c924340bb9dbf6c-7" value="&lt;span&gt;WORKOUT SOLVER API&lt;/span&gt;" style="ellipse;whiteSpace=wrap;html=1;rounded=1;shadow=1;comic=0;labelBackgroundColor=none;strokeWidth=2;fontFamily=Verdana;fontSize=12;align=center;fillColor=#dae8fc;strokeColor=#6c8ebf;fontColor=#000000;" parent="1" vertex="1"><mxGeometry x="740" y="280" width="120" height="80" as="geometry"/></mxCell><mxCell id="nxYqTuAyTyZR1LH0054Z-7" value="GYM SOLVER API" style="ellipse;whiteSpace=wrap;html=1;rounded=1;shadow=1;comic=0;labelBackgroundColor=none;strokeWidth=2;fontFamily=Verdana;fontSize=12;align=center;fillColor=#dae8fc;strokeColor=#6c8ebf;fontColor=#4D4D4D;" parent="1" vertex="1"><mxGeometry x="250" y="280" width="120" height="80" as="geometry"/></mxCell><mxCell id="nxYqTuAyTyZR1LH0054Z-30" value="&lt;span&gt;PAYMENT SOLVER API&lt;/span&gt;" style="ellipse;whiteSpace=wrap;html=1;rounded=1;shadow=1;comic=0;labelBackgroundColor=none;strokeWidth=2;fontFamily=Verdana;fontSize=12;align=center;fillColor=#dae8fc;strokeColor=#6c8ebf;fontColor=#080808;" parent="1" vertex="1"><mxGeometry x="490" y="70" width="120" height="80" as="geometry"/></mxCell><mxCell id="nxYqTuAyTyZR1LH0054Z-31" value="MESSAGING SOLVER API" style="ellipse;whiteSpace=wrap;html=1;rounded=1;shadow=1;comic=0;labelBackgroundColor=none;strokeWidth=2;fontFamily=Verdana;fontSize=12;align=center;fillColor=#dae8fc;strokeColor=#6c8ebf;fontColor=#1C1C1C;" parent="1" vertex="1"><mxGeometry x="490" y="470" width="120" height="80" as="geometry"/></mxCell><mxCell id="nxYqTuAyTyZR1LH0054Z-43" value="&lt;span&gt;CREATE PLAN&lt;/span&gt;" style="whiteSpace=wrap;html=1;rounded=1;shadow=1;comic=0;labelBackgroundColor=none;strokeWidth=2;fontFamily=Verdana;fontSize=12;align=center;arcSize=50;" parent="1" vertex="1"><mxGeometry x="-100" y="270" width="100" height="20" as="geometry"/></mxCell><mxCell id="nxYqTuAyTyZR1LH0054Z-45" value="relation" style="edgeStyle=none;rounded=1;html=1;labelBackgroundColor=none;startArrow=none;startFill=0;startSize=5;endArrow=classicThin;endFill=1;endSize=5;jettySize=auto;orthogonalLoop=1;strokeColor=#B3B3B3;strokeWidth=1;fontFamily=Verdana;fontSize=12;exitX=0;exitY=0.5;exitDx=0;exitDy=0;" parent="1" source="nxYqTuAyTyZR1LH0054Z-58" target="nxYqTuAyTyZR1LH0054Z-43" edge="1"><mxGeometry relative="1" as="geometry"><mxPoint x="210" y="100" as="sourcePoint"/><mxPoint x="209" y="90" as="targetPoint"/></mxGeometry></mxCell><mxCell id="nxYqTuAyTyZR1LH0054Z-46" value="GET PLAN BY ID" style="whiteSpace=wrap;html=1;rounded=1;shadow=1;comic=0;labelBackgroundColor=none;strokeWidth=2;fontFamily=Verdana;fontSize=12;align=center;arcSize=50;" parent="1" vertex="1"><mxGeometry x="90" y="230" width="100" height="20" as="geometry"/></mxCell><mxCell id="nxYqTuAyTyZR1LH0054Z-47" value="relation" style="edgeStyle=none;rounded=1;html=1;labelBackgroundColor=none;startArrow=none;startFill=0;startSize=5;endArrow=classicThin;endFill=1;endSize=5;jettySize=auto;orthogonalLoop=1;strokeColor=#B3B3B3;strokeWidth=1;fontFamily=Verdana;fontSize=12;" parent="1" source="nxYqTuAyTyZR1LH0054Z-7" target="nxYqTuAyTyZR1LH0054Z-46" edge="1"><mxGeometry relative="1" as="geometry"><mxPoint x="11" y="392" as="sourcePoint"/><mxPoint x="119" y="200" as="targetPoint"/></mxGeometry></mxCell><mxCell id="nxYqTuAyTyZR1LH0054Z-48" value="&lt;span&gt;GET ALL PLANS&lt;/span&gt;" style="whiteSpace=wrap;html=1;rounded=1;shadow=1;comic=0;labelBackgroundColor=none;strokeWidth=2;fontFamily=Verdana;fontSize=12;align=center;arcSize=50;" parent="1" vertex="1"><mxGeometry x="90" y="390" width="100" height="20" as="geometry"/></mxCell><mxCell id="nxYqTuAyTyZR1LH0054Z-49" value="relation" style="edgeStyle=none;rounded=1;html=1;labelBackgroundColor=none;startArrow=none;startFill=0;startSize=5;endArrow=classicThin;endFill=1;endSize=5;jettySize=auto;orthogonalLoop=1;strokeColor=#B3B3B3;strokeWidth=1;fontFamily=Verdana;fontSize=12;" parent="1" source="nxYqTuAyTyZR1LH0054Z-7" target="nxYqTuAyTyZR1LH0054Z-48" edge="1"><mxGeometry relative="1" as="geometry"><mxPoint x="-70" y="160" as="sourcePoint"/><mxPoint x="-41" y="230" as="targetPoint"/></mxGeometry></mxCell><mxCell id="nxYqTuAyTyZR1LH0054Z-50" value="&lt;span&gt;UPDATE PLAN&lt;/span&gt;" style="whiteSpace=wrap;html=1;rounded=1;shadow=1;comic=0;labelBackgroundColor=none;strokeWidth=2;fontFamily=Verdana;fontSize=12;align=center;arcSize=50;" parent="1" vertex="1"><mxGeometry x="-100" y="370" width="100" height="20" as="geometry"/></mxCell><mxCell id="nxYqTuAyTyZR1LH0054Z-51" value="relation" style="edgeStyle=none;rounded=1;html=1;labelBackgroundColor=none;startArrow=none;startFill=0;startSize=5;endArrow=classicThin;endFill=1;endSize=5;jettySize=auto;orthogonalLoop=1;strokeColor=#B3B3B3;strokeWidth=1;fontFamily=Verdana;fontSize=12;exitX=0;exitY=0.75;exitDx=0;exitDy=0;" parent="1" source="nxYqTuAyTyZR1LH0054Z-58" target="nxYqTuAyTyZR1LH0054Z-50" edge="1"><mxGeometry relative="1" as="geometry"><mxPoint x="-46" y="161.98000000000002" as="sourcePoint"/><mxPoint x="39" y="305" as="targetPoint"/></mxGeometry></mxCell><mxCell id="nxYqTuAyTyZR1LH0054Z-53" value="relation" style="edgeStyle=none;rounded=1;html=1;labelBackgroundColor=none;startArrow=none;startFill=0;startSize=5;endArrow=classicThin;endFill=1;endSize=5;jettySize=auto;orthogonalLoop=1;strokeColor=#B3B3B3;strokeWidth=1;fontFamily=Verdana;fontSize=12;exitX=0;exitY=0.5;exitDx=0;exitDy=0;entryX=1;entryY=0.5;entryDx=0;entryDy=0;" parent="1" source="2c924340bb9dbf6c-4" target="nxYqTuAyTyZR1LH0054Z-7" edge="1"><mxGeometry relative="1" as="geometry"><mxPoint x="436" y="316" as="sourcePoint"/><mxPoint x="390" y="224" as="targetPoint"/></mxGeometry></mxCell><mxCell id="nxYqTuAyTyZR1LH0054Z-54" value="relation" style="edgeStyle=none;rounded=1;html=1;labelBackgroundColor=none;startArrow=none;startFill=0;startSize=5;endArrow=classicThin;endFill=1;endSize=5;jettySize=auto;orthogonalLoop=1;strokeColor=#B3B3B3;strokeWidth=1;fontFamily=Verdana;fontSize=12;exitX=0.5;exitY=0;exitDx=0;exitDy=0;entryX=0.5;entryY=1;entryDx=0;entryDy=0;" parent="1" source="2c924340bb9dbf6c-4" target="nxYqTuAyTyZR1LH0054Z-30" edge="1"><mxGeometry relative="1" as="geometry"><mxPoint x="426" y="252" as="sourcePoint"/><mxPoint x="380" y="160" as="targetPoint"/></mxGeometry></mxCell><mxCell id="nxYqTuAyTyZR1LH0054Z-56" value="relation" style="edgeStyle=none;rounded=1;html=1;labelBackgroundColor=none;startArrow=none;startFill=0;startSize=5;endArrow=classicThin;endFill=1;endSize=5;jettySize=auto;orthogonalLoop=1;strokeColor=#B3B3B3;strokeWidth=1;fontFamily=Verdana;fontSize=12;exitX=1.025;exitY=0.425;exitDx=0;exitDy=0;exitPerimeter=0;entryX=0;entryY=0.425;entryDx=0;entryDy=0;entryPerimeter=0;" parent="1" source="2c924340bb9dbf6c-4" target="2c924340bb9dbf6c-7" edge="1"><mxGeometry relative="1" as="geometry"><mxPoint x="846" y="342" as="sourcePoint"/><mxPoint x="800" y="250" as="targetPoint"/></mxGeometry></mxCell><mxCell id="nxYqTuAyTyZR1LH0054Z-57" value="relation" style="edgeStyle=none;rounded=1;html=1;labelBackgroundColor=none;startArrow=none;startFill=0;startSize=5;endArrow=classicThin;endFill=1;endSize=5;jettySize=auto;orthogonalLoop=1;strokeColor=#B3B3B3;strokeWidth=1;fontFamily=Verdana;fontSize=12;entryX=0.5;entryY=0;entryDx=0;entryDy=0;exitX=0.5;exitY=1;exitDx=0;exitDy=0;" parent="1" source="2c924340bb9dbf6c-4" target="nxYqTuAyTyZR1LH0054Z-31" edge="1"><mxGeometry relative="1" as="geometry"><mxPoint x="486" y="472" as="sourcePoint"/><mxPoint x="440" y="380" as="targetPoint"/></mxGeometry></mxCell><mxCell id="nxYqTuAyTyZR1LH0054Z-58" value="RULLES OF PLAN" style="rounded=1;whiteSpace=wrap;html=1;shadow=1;comic=0;labelBackgroundColor=none;strokeWidth=2;fontFamily=Verdana;fontSize=12;align=center;fillColor=#ffe6cc;strokeColor=#d79b00;fontColor=#0D0D0D;" parent="1" vertex="1"><mxGeometry x="30" y="290" width="120" height="60" as="geometry"/></mxCell><mxCell id="nxYqTuAyTyZR1LH0054Z-60" value="relation" style="edgeStyle=none;rounded=1;html=1;labelBackgroundColor=none;startArrow=none;startFill=0;startSize=5;endArrow=classicThin;endFill=1;endSize=5;jettySize=auto;orthogonalLoop=1;strokeColor=#B3B3B3;strokeWidth=1;fontFamily=Verdana;fontSize=12;exitX=0;exitY=0.5;exitDx=0;exitDy=0;entryX=1;entryY=0.5;entryDx=0;entryDy=0;" parent="1" source="nxYqTuAyTyZR1LH0054Z-7" target="nxYqTuAyTyZR1LH0054Z-58" edge="1"><mxGeometry relative="1" as="geometry"><mxPoint x="320" y="420" as="sourcePoint"/><mxPoint x="170" y="420" as="targetPoint"/></mxGeometry></mxCell><mxCell id="nxYqTuAyTyZR1LH0054Z-62" value="RULLES OF PAYMENT" style="rounded=1;whiteSpace=wrap;html=1;shadow=1;comic=0;labelBackgroundColor=none;strokeWidth=2;fontFamily=Verdana;fontSize=12;align=center;fillColor=#ffe6cc;strokeColor=#d79b00;fontColor=#000000;" parent="1" vertex="1"><mxGeometry x="490" y="-80" width="120" height="60" as="geometry"/></mxCell><mxCell id="nxYqTuAyTyZR1LH0054Z-65" value="relation" style="edgeStyle=none;rounded=1;html=1;labelBackgroundColor=none;startArrow=none;startFill=0;startSize=5;endArrow=classicThin;endFill=1;endSize=5;jettySize=auto;orthogonalLoop=1;strokeColor=#B3B3B3;strokeWidth=1;fontFamily=Verdana;fontSize=12;exitX=0.5;exitY=0;exitDx=0;exitDy=0;entryX=0.5;entryY=1;entryDx=0;entryDy=0;" parent="1" source="nxYqTuAyTyZR1LH0054Z-30" target="nxYqTuAyTyZR1LH0054Z-62" edge="1"><mxGeometry relative="1" as="geometry"><mxPoint x="660" y="90" as="sourcePoint"/><mxPoint x="660" y="-20" as="targetPoint"/></mxGeometry></mxCell><mxCell id="nxYqTuAyTyZR1LH0054Z-66" value="CREATE PAYMENT" style="whiteSpace=wrap;html=1;rounded=1;shadow=1;comic=0;labelBackgroundColor=none;strokeWidth=2;fontFamily=Verdana;fontSize=12;align=center;arcSize=50;" parent="1" vertex="1"><mxGeometry x="480" y="-160" width="130" height="20" as="geometry"/></mxCell><mxCell id="nxYqTuAyTyZR1LH0054Z-67" value="GET PAYMENT BY ID" style="whiteSpace=wrap;html=1;rounded=1;shadow=1;comic=0;labelBackgroundColor=none;strokeWidth=2;fontFamily=Verdana;fontSize=12;align=center;arcSize=50;direction=west;" parent="1" vertex="1"><mxGeometry x="640" y="-20" width="130" height="20" as="geometry"/></mxCell><mxCell id="nxYqTuAyTyZR1LH0054Z-68" value="relation" style="edgeStyle=none;rounded=1;html=1;labelBackgroundColor=none;startArrow=none;startFill=0;startSize=5;endArrow=classicThin;endFill=1;endSize=5;jettySize=auto;orthogonalLoop=1;strokeColor=#B3B3B3;strokeWidth=1;fontFamily=Verdana;fontSize=12;exitX=1;exitY=0;exitDx=0;exitDy=0;" parent="1" source="nxYqTuAyTyZR1LH0054Z-30" edge="1"><mxGeometry relative="1" as="geometry"><mxPoint x="640" y="100" as="sourcePoint"/><mxPoint x="710" as="targetPoint"/></mxGeometry></mxCell><mxCell id="nxYqTuAyTyZR1LH0054Z-69" value="GET ALL PAYMENTS" style="whiteSpace=wrap;html=1;rounded=1;shadow=1;comic=0;labelBackgroundColor=none;strokeWidth=2;fontFamily=Verdana;fontSize=12;align=center;arcSize=50;direction=west;" parent="1" vertex="1"><mxGeometry x="330" y="-20" width="130" height="20" as="geometry"/></mxCell><mxCell id="nxYqTuAyTyZR1LH0054Z-70" value="relation" style="edgeStyle=none;rounded=1;html=1;labelBackgroundColor=none;startArrow=none;startFill=0;startSize=5;endArrow=classicThin;endFill=1;endSize=5;jettySize=auto;orthogonalLoop=1;strokeColor=#B3B3B3;strokeWidth=1;fontFamily=Verdana;fontSize=12;exitX=0;exitY=0;exitDx=0;exitDy=0;entryX=0.5;entryY=0;entryDx=0;entryDy=0;" parent="1" source="nxYqTuAyTyZR1LH0054Z-30" target="nxYqTuAyTyZR1LH0054Z-69" edge="1"><mxGeometry relative="1" as="geometry"><mxPoint x="280" y="132" as="sourcePoint"/><mxPoint x="398" y="50" as="targetPoint"/></mxGeometry></mxCell><mxCell id="nxYqTuAyTyZR1LH0054Z-73" value="relation" style="edgeStyle=none;rounded=1;html=1;labelBackgroundColor=none;startArrow=none;startFill=0;startSize=5;endArrow=classicThin;endFill=1;endSize=5;jettySize=auto;orthogonalLoop=1;strokeColor=#B3B3B3;strokeWidth=1;fontFamily=Verdana;fontSize=12;exitX=0.5;exitY=0;exitDx=0;exitDy=0;entryX=0.5;entryY=1;entryDx=0;entryDy=0;" parent="1" source="nxYqTuAyTyZR1LH0054Z-62" target="nxYqTuAyTyZR1LH0054Z-66" edge="1"><mxGeometry relative="1" as="geometry"><mxPoint x="466" y="-53" as="sourcePoint"/><mxPoint x="370" y="-150" as="targetPoint"/></mxGeometry></mxCell><mxCell id="nxYqTuAyTyZR1LH0054Z-75" value="RULLES OF PAYMENT" style="rounded=1;whiteSpace=wrap;html=1;shadow=1;comic=0;labelBackgroundColor=none;strokeWidth=2;fontFamily=Verdana;fontSize=12;align=center;fillColor=#ffe6cc;strokeColor=#d79b00;fontColor=#121212;" parent="1" vertex="1"><mxGeometry x="980" y="290" width="120" height="60" as="geometry"/></mxCell><mxCell id="nxYqTuAyTyZR1LH0054Z-76" value="relation" style="edgeStyle=none;rounded=1;html=1;labelBackgroundColor=none;startArrow=none;startFill=0;startSize=5;endArrow=classicThin;endFill=1;endSize=5;jettySize=auto;orthogonalLoop=1;strokeColor=#B3B3B3;strokeWidth=1;fontFamily=Verdana;fontSize=12;exitX=1;exitY=0.5;exitDx=0;exitDy=0;entryX=0;entryY=0.5;entryDx=0;entryDy=0;" parent="1" source="2c924340bb9dbf6c-7" target="nxYqTuAyTyZR1LH0054Z-75" edge="1"><mxGeometry relative="1" as="geometry"><mxPoint x="890" y="378.5" as="sourcePoint"/><mxPoint x="1027" y="381.5" as="targetPoint"/></mxGeometry></mxCell><mxCell id="nxYqTuAyTyZR1LH0054Z-77" value="GET ALL WORKOUTS&amp;nbsp;" style="whiteSpace=wrap;html=1;rounded=1;shadow=1;comic=0;labelBackgroundColor=none;strokeWidth=2;fontFamily=Verdana;fontSize=12;align=center;arcSize=50;" parent="1" vertex="1"><mxGeometry x="920" y="230" width="140" height="20" as="geometry"/></mxCell><mxCell id="nxYqTuAyTyZR1LH0054Z-78" value="GET WORKOUT BY ID" style="whiteSpace=wrap;html=1;rounded=1;shadow=1;comic=0;labelBackgroundColor=none;strokeWidth=2;fontFamily=Verdana;fontSize=12;align=center;arcSize=50;" parent="1" vertex="1"><mxGeometry x="920" y="390" width="140" height="20" as="geometry"/></mxCell><mxCell id="nxYqTuAyTyZR1LH0054Z-79" value="relation" style="edgeStyle=none;rounded=1;html=1;labelBackgroundColor=none;startArrow=none;startFill=0;startSize=5;endArrow=classicThin;endFill=1;endSize=5;jettySize=auto;orthogonalLoop=1;strokeColor=#B3B3B3;strokeWidth=1;fontFamily=Verdana;fontSize=12;exitX=1;exitY=0;exitDx=0;exitDy=0;entryX=0;entryY=0.75;entryDx=0;entryDy=0;" parent="1" source="2c924340bb9dbf6c-7" target="nxYqTuAyTyZR1LH0054Z-77" edge="1"><mxGeometry relative="1" as="geometry"><mxPoint x="800" y="250" as="sourcePoint"/><mxPoint x="918" y="168" as="targetPoint"/></mxGeometry></mxCell><mxCell id="nxYqTuAyTyZR1LH0054Z-80" value="relation" style="edgeStyle=none;rounded=1;html=1;labelBackgroundColor=none;startArrow=none;startFill=0;startSize=5;endArrow=classicThin;endFill=1;endSize=5;jettySize=auto;orthogonalLoop=1;strokeColor=#B3B3B3;strokeWidth=1;fontFamily=Verdana;fontSize=12;exitX=0.942;exitY=0.775;exitDx=0;exitDy=0;exitPerimeter=0;entryX=0;entryY=0.75;entryDx=0;entryDy=0;" parent="1" source="2c924340bb9dbf6c-7" target="nxYqTuAyTyZR1LH0054Z-78" edge="1"><mxGeometry relative="1" as="geometry"><mxPoint x="810" y="453" as="sourcePoint"/><mxPoint x="860" y="398" as="targetPoint"/></mxGeometry></mxCell><mxCell id="nxYqTuAyTyZR1LH0054Z-82" value="CREATE WORKOUT" style="whiteSpace=wrap;html=1;rounded=1;shadow=1;comic=0;labelBackgroundColor=none;strokeWidth=2;fontFamily=Verdana;fontSize=12;align=center;arcSize=50;" parent="1" vertex="1"><mxGeometry x="1150" y="260" width="140" height="20" as="geometry"/></mxCell><mxCell id="nxYqTuAyTyZR1LH0054Z-83" value="UPDATE WORKOUT" style="whiteSpace=wrap;html=1;rounded=1;shadow=1;comic=0;labelBackgroundColor=none;strokeWidth=2;fontFamily=Verdana;fontSize=12;align=center;arcSize=50;" parent="1" vertex="1"><mxGeometry x="1150" y="350" width="140" height="20" as="geometry"/></mxCell><mxCell id="nxYqTuAyTyZR1LH0054Z-84" value="relation" style="edgeStyle=none;rounded=1;html=1;labelBackgroundColor=none;startArrow=none;startFill=0;startSize=5;endArrow=classicThin;endFill=1;endSize=5;jettySize=auto;orthogonalLoop=1;strokeColor=#B3B3B3;strokeWidth=1;fontFamily=Verdana;fontSize=12;exitX=1;exitY=0.25;exitDx=0;exitDy=0;entryX=0;entryY=0.5;entryDx=0;entryDy=0;" parent="1" source="nxYqTuAyTyZR1LH0054Z-75" target="nxYqTuAyTyZR1LH0054Z-82" edge="1"><mxGeometry relative="1" as="geometry"><mxPoint x="1070" y="278.24" as="sourcePoint"/><mxPoint x="1100.04" y="181.76" as="targetPoint"/></mxGeometry></mxCell><mxCell id="nxYqTuAyTyZR1LH0054Z-85" value="relation" style="edgeStyle=none;rounded=1;html=1;labelBackgroundColor=none;startArrow=none;startFill=0;startSize=5;endArrow=classicThin;endFill=1;endSize=5;jettySize=auto;orthogonalLoop=1;strokeColor=#B3B3B3;strokeWidth=1;fontFamily=Verdana;fontSize=12;exitX=1.042;exitY=0.633;exitDx=0;exitDy=0;entryX=0;entryY=0;entryDx=0;entryDy=0;exitPerimeter=0;" parent="1" source="nxYqTuAyTyZR1LH0054Z-75" target="nxYqTuAyTyZR1LH0054Z-83" edge="1"><mxGeometry relative="1" as="geometry"><mxPoint x="1080" y="300" as="sourcePoint"/><mxPoint x="1130" y="240" as="targetPoint"/></mxGeometry></mxCell><mxCell id="nxYqTuAyTyZR1LH0054Z-87" value="RULLES OF MESSAGES" style="rounded=1;whiteSpace=wrap;html=1;shadow=1;comic=0;labelBackgroundColor=none;strokeWidth=2;fontFamily=Verdana;fontSize=12;align=center;fillColor=#ffe6cc;strokeColor=#d79b00;fontColor=#050505;" parent="1" vertex="1"><mxGeometry x="490" y="630" width="120" height="60" as="geometry"/></mxCell><mxCell id="nxYqTuAyTyZR1LH0054Z-88" value="relation" style="edgeStyle=none;rounded=1;html=1;labelBackgroundColor=none;startArrow=none;startFill=0;startSize=5;endArrow=classicThin;endFill=1;endSize=5;jettySize=auto;orthogonalLoop=1;strokeColor=#B3B3B3;strokeWidth=1;fontFamily=Verdana;fontSize=12;exitX=0.5;exitY=1;exitDx=0;exitDy=0;" parent="1" source="nxYqTuAyTyZR1LH0054Z-31" edge="1"><mxGeometry relative="1" as="geometry"><mxPoint x="650" y="530" as="sourcePoint"/><mxPoint x="550" y="630" as="targetPoint"/></mxGeometry></mxCell><mxCell id="nxYqTuAyTyZR1LH0054Z-89" value="GET MESSAGE BY ID" style="whiteSpace=wrap;html=1;rounded=1;shadow=1;comic=0;labelBackgroundColor=none;strokeWidth=2;fontFamily=Verdana;fontSize=12;align=center;arcSize=50;" parent="1" vertex="1"><mxGeometry x="320" y="600" width="140" height="20" as="geometry"/></mxCell><mxCell id="nxYqTuAyTyZR1LH0054Z-90" value="GET ALL MESSAGES" style="whiteSpace=wrap;html=1;rounded=1;shadow=1;comic=0;labelBackgroundColor=none;strokeWidth=2;fontFamily=Verdana;fontSize=12;align=center;arcSize=50;" parent="1" vertex="1"><mxGeometry x="640" y="600" width="140" height="20" as="geometry"/></mxCell><mxCell id="nxYqTuAyTyZR1LH0054Z-91" value="relation" style="edgeStyle=none;rounded=1;html=1;labelBackgroundColor=none;startArrow=none;startFill=0;startSize=5;endArrow=classicThin;endFill=1;endSize=5;jettySize=auto;orthogonalLoop=1;strokeColor=#B3B3B3;strokeWidth=1;fontFamily=Verdana;fontSize=12;exitX=0;exitY=1;exitDx=0;exitDy=0;entryX=1;entryY=0;entryDx=0;entryDy=0;" parent="1" source="nxYqTuAyTyZR1LH0054Z-31" target="nxYqTuAyTyZR1LH0054Z-89" edge="1"><mxGeometry relative="1" as="geometry"><mxPoint x="400" y="657" as="sourcePoint"/><mxPoint x="478" y="610" as="targetPoint"/></mxGeometry></mxCell><mxCell id="nxYqTuAyTyZR1LH0054Z-92" value="relation" style="edgeStyle=none;rounded=1;html=1;labelBackgroundColor=none;startArrow=none;startFill=0;startSize=5;endArrow=classicThin;endFill=1;endSize=5;jettySize=auto;orthogonalLoop=1;strokeColor=#B3B3B3;strokeWidth=1;fontFamily=Verdana;fontSize=12;exitX=1;exitY=1;exitDx=0;exitDy=0;entryX=0.057;entryY=0.1;entryDx=0;entryDy=0;entryPerimeter=0;" parent="1" source="nxYqTuAyTyZR1LH0054Z-31" target="nxYqTuAyTyZR1LH0054Z-90" edge="1"><mxGeometry relative="1" as="geometry"><mxPoint x="718" y="620" as="sourcePoint"/><mxPoint x="650" y="610" as="targetPoint"/></mxGeometry></mxCell><mxCell id="nxYqTuAyTyZR1LH0054Z-93" value="UPDATE MESSAGE" style="whiteSpace=wrap;html=1;rounded=1;shadow=1;comic=0;labelBackgroundColor=none;strokeWidth=2;fontFamily=Verdana;fontSize=12;align=center;arcSize=50;" parent="1" vertex="1"><mxGeometry x="590" y="750" width="140" height="20" as="geometry"/></mxCell><mxCell id="nxYqTuAyTyZR1LH0054Z-94" value="CREATE MESSAGE" style="whiteSpace=wrap;html=1;rounded=1;shadow=1;comic=0;labelBackgroundColor=none;strokeWidth=2;fontFamily=Verdana;fontSize=12;align=center;arcSize=50;" parent="1" vertex="1"><mxGeometry x="390" y="750" width="140" height="20" as="geometry"/></mxCell><mxCell id="nxYqTuAyTyZR1LH0054Z-95" value="relation" style="edgeStyle=none;rounded=1;html=1;labelBackgroundColor=none;startArrow=none;startFill=0;startSize=5;endArrow=classicThin;endFill=1;endSize=5;jettySize=auto;orthogonalLoop=1;strokeColor=#B3B3B3;strokeWidth=1;fontFamily=Verdana;fontSize=12;exitX=0.25;exitY=1;exitDx=0;exitDy=0;entryX=0.75;entryY=0;entryDx=0;entryDy=0;" parent="1" source="nxYqTuAyTyZR1LH0054Z-87" target="nxYqTuAyTyZR1LH0054Z-94" edge="1"><mxGeometry relative="1" as="geometry"><mxPoint x="448" y="708" as="sourcePoint"/><mxPoint x="400" y="770" as="targetPoint"/></mxGeometry></mxCell><mxCell id="nxYqTuAyTyZR1LH0054Z-96" value="relation" style="edgeStyle=none;rounded=1;html=1;labelBackgroundColor=none;startArrow=none;startFill=0;startSize=5;endArrow=classicThin;endFill=1;endSize=5;jettySize=auto;orthogonalLoop=1;strokeColor=#B3B3B3;strokeWidth=1;fontFamily=Verdana;fontSize=12;exitX=0.75;exitY=1;exitDx=0;exitDy=0;entryX=0.25;entryY=0;entryDx=0;entryDy=0;" parent="1" source="nxYqTuAyTyZR1LH0054Z-87" target="nxYqTuAyTyZR1LH0054Z-93" edge="1"><mxGeometry relative="1" as="geometry"><mxPoint x="555" y="710" as="sourcePoint"/><mxPoint x="530" y="770" as="targetPoint"/></mxGeometry></mxCell></root></mxGraphModel></diagram></mxfile>